<?xml version="1.0" standalone="no"?>
<!DOCTYPE svg PUBLIC "-//W3C//DTD SVG 20010904//EN"
 "http://www.w3.org/TR/2001/REC-SVG-20010904/DTD/svg10.dtd">
<svg version="1.0" xmlns="http://www.w3.org/2000/svg"
 width="96.000000pt" height="96.000000pt" viewBox="0 0 96.000000 96.000000"
 preserveAspectRatio="xMidYMid meet">
<metadata>
Created by potrace 1.14, written by Peter Selinger 2001-2017
</metadata>
<g transform="translate(0.000000,96.000000) scale(0.100000,-0.100000)"
fill="#000000" stroke="none">
<path d="M460 903 c-82 -28 -387 -148 -395 -154 -14 -13 12 -33 75 -58 l56
-22 -2 -92 c-2 -115 2 -100 -39 -141 -47 -47 -48 -93 -4 -139 17 -18 45 -57
62 -87 102 -174 339 -206 482 -64 22 22 49 59 60 83 10 24 34 58 52 76 46 46
42 95 -13 138 -30 23 -37 48 -38 136 -1 82 4 94 51 109 l32 10 -2 -63 c-1 -36
-8 -70 -14 -77 -26 -24 -11 -66 25 -73 40 -7 62 54 28 77 -6 4 -11 38 -12 75
0 56 3 70 20 84 20 16 19 16 -5 32 -20 13 -393 158 -401 156 -2 0 -10 -3 -18
-6z m186 -84 c88 -34 170 -66 184 -71 22 -9 6 -18 -150 -79 -96 -38 -186 -69
-200 -69 -32 0 -371 131 -365 141 3 4 27 15 53 23 26 9 103 38 172 66 69 27
130 49 136 50 7 0 83 -28 170 -61z m-253 -223 c37 -15 76 -26 86 -26 11 0 71
20 135 44 l116 44 0 -68 0 -68 -71 -17 c-112 -28 -299 -24 -396 7 l-38 13 -1
67 -2 66 52 -18 c28 -11 82 -30 119 -44z m475 -68 c-6 -18 -28 -21 -28 -4 0 9
7 16 16 16 9 0 14 -5 12 -12z m-543 -58 c48 -11 207 -14 270 -6 17 2 52 9 80
16 44 10 51 9 62 -6 7 -10 13 -23 13 -29 0 -6 11 -18 25 -25 13 -7 27 -22 31
-32 9 -29 -4 -66 -25 -73 -10 -3 -33 -34 -50 -70 -37 -74 -89 -121 -165 -146
-134 -46 -287 21 -344 150 -11 24 -32 53 -47 65 -38 31 -37 72 3 105 17 14 33
37 37 49 6 20 12 23 33 18 15 -3 50 -11 77 -16z"/>
<path d="M308 419 c-22 -12 -23 -52 -3 -69 20 -17 61 -5 68 19 5 22 -18 61
-36 61 -7 0 -20 -5 -29 -11z m37 -30 c10 -15 -1 -23 -20 -15 -9 3 -13 10 -10
16 8 13 22 13 30 -1z"/>
<path d="M596 404 c-19 -18 -20 -28 -6 -55 16 -29 58 -25 72 7 11 23 10 29
-11 45 -28 23 -35 23 -55 3z m44 -29 c0 -8 -7 -15 -15 -15 -8 0 -15 7 -15 15
0 8 7 15 15 15 8 0 15 -7 15 -15z"/>
<path d="M340 263 c0 -84 108 -151 187 -118 41 17 80 61 87 98 7 35 -10 62
-19 31 -33 -103 -105 -139 -181 -89 -20 13 -55 64 -54 80 1 20 -1 25 -10 25
-5 0 -10 -12 -10 -27z"/>
</g>
</svg>
